PathFileType	4	(X/Y/Z)	flex.trc
DataRate	CameraRate	NumFrames	NumMarkers	Units	OrigDataRate	OrigDataStartFrame	OrigNumFrames
100.0	100.0	9	17	mm	100.0	1015	1352
Frame#	Time	STER			XIPH			T10			T1			CLAV_AC			SCAP_AA			SCAP_CP			SCAP_TS			SCAP_IA			DELT			ARMl			EPICm			EPICl			LARM_elb			STYLr			STYLu			CLAV_SC		
		X1	Y1	Z1	X2	Y2	Z2	X3	Y3	Z3	X4	Y4	Z4	X5	Y5	Z5	X6	Y6	Z6	X7	Y7	Z7	X8	Y8	Z8	X9	Y9	Z9	X10	Y10	Z10	X11	Y11	Z11	X12	Y12	Z12	X13	Y13	Z13	X14	Y14	Z14	X15	Y15	Z15	X16	Y16	Z16	X17	Y17	Z17

1015	10.14	391.24359130859375	78.42828369140625	1439.83935546875	389.2971496582031	136.38113403320312	1278.497314453125	373.85101318359375	-96.5333251953125	1238.4698486328125	369.06976318359375	-82.98536682128906	1467.5301513671875	573.1408081054688	-16.244300842285156	1459.5126953125	573.1917724609375	-60.872493743896484	1439.129638671875	518.5139770507812	-65.69551086425781	1467.873291015625	499.0664978027344	-116.42269134521484	1410.842529296875	477.66766357421875	-119.00068664550781	1273.774169921875	648.4324951171875	-41.69309997558594	1314.699462890625	664.8422241210938	-53.70224380493164	1268.6202392578125	668.29638671875	4.581530570983887	1110.5986328125	729.9346313476562	-61.396217346191406	1166.2586669921875	682.5860595703125	-40.649009704589844	1102.63427734375	927.5524291992188	47.17998504638672	1003.0808715820312	865.1873779296875	39.75984191894531	949.86572265625	426.67376708984375	68.21898651123047	1444.62255859375
1016	10.15	390.7715759277344	78.29295349121094	1439.7906494140625	389.0675354003906	136.32745361328125	1278.4488525390625	373.92156982421875	-96.64546203613281	1238.459716796875	368.96441650390625	-83.05975341796875	1467.5316162109375	572.9784545898438	-16.130544662475586	1459.572265625	573.0964965820312	-60.77819061279297	1439.2099609375	518.416015625	-65.66914367675781	1467.94970703125	498.88970947265625	-116.42709350585938	1411.1387939453125	477.7085266113281	-119.03006744384766	1273.8331298828125	648.3239135742188	-41.55494689941406	1314.75927734375	664.7080078125	-53.559539794921875	1268.671875	668.0309448242188	4.653182506561279	1110.7508544921875	729.9144897460938	-61.239776611328125	1166.3187255859375	682.41162109375	-40.587745666503906	1102.689208984375	927.272216796875	47.40736389160156	1003.001708984375	864.303955078125	40.09321975708008	949.4610595703125	426.6368713378906	68.4167709350586	1444.5450439453125
1017	10.16	390.357421875	78.16162109375	1439.7679443359375	388.7199401855469	136.2596435546875	1278.4727783203125	373.9886779785156	-96.72016906738281	1238.46484375	368.8656311035156	-83.1754379272461	1467.5367431640625	572.8057861328125	-16.019882202148438	1459.6502685546875	573.030029296875	-60.67972946166992	1439.26904296875	518.3194580078125	-65.62246704101562	1468.003173828125	498.97674560546875	-116.3916244506836	1411.107177734375	477.708984375	-119.02420806884766	1273.8980712890625	648.4765014648438	-41.332557678222656	1314.36376953125	664.5640258789062	-53.44232940673828	1268.699951171875	667.8833618164062	4.723123073577881	1110.6697998046875	729.7403564453125	-61.097469329833984	1166.3365478515625	682.2384643554688	-40.51982116699219	1102.7454833984375	926.7005004882812	47.59281921386719	1002.7953491210938	864.6731567382812	39.97719192504883	949.81689453125	426.08203125	68.08253479003906	1444.623046875
1018	10.17	390.2846984863281	78.10457611083984	1439.791015625	388.5467529296875	136.17970275878906	1278.492919921875	374.0648193359375	-96.78947448730469	1238.4617919921875	368.74371337890625	-83.2763900756836	1467.52294921875	572.6879272460938	-15.91075325012207	1459.7147216796875	572.9344482421875	-60.57890701293945	1439.3245849609375	518.2186889648438	-65.57201385498047	1468.064453125	498.8645935058594	-116.37071990966797	1411.152099609375	477.82720947265625	-119.0372314453125	1273.9464111328125	648.0755004882812	-41.26365661621094	1314.7955322265625	664.4560546875	-53.32334899902344	1268.74462890625	667.6906127929688	4.7510600090026855	1110.7247314453125	729.6742553710938	-60.965763092041016	1166.412841796875	682.0807495117188	-40.478824615478516	1102.7724609375	926.4480590820312	47.74114990234375	1002.7355346679688	864.4060668945312	40.033050537109375	949.7446899414062	425.8591613769531	68.04808807373047	1444.6376953125
1019	10.18	390.0852355957031	78.03836059570312	1439.8563232421875	388.2867126464844	136.09378051757812	1278.5670166015625	374.1077575683594	-96.87291717529297	1238.4326171875	368.62347412109375	-83.37079620361328	1467.501953125	572.5736083984375	-15.78879451751709	1459.7435302734375	572.8494873046875	-60.455238342285156	1439.3934326171875	518.1387329101562	-65.50553894042969	1468.12890625	498.8326416015625	-116.34583282470703	1411.082275390625	477.7816467285156	-119.01145935058594	1273.9638671875	648.0984497070312	-41.046630859375	1314.3770751953125	664.322021484375	-53.2076416015625	1268.8013916015625	667.453369140625	4.7791900634765625	1110.6539306640625	729.5638427734375	-60.8536376953125	1166.415771484375	681.947265625	-40.43223190307617	1102.806640625	926.2091674804688	47.8465576171875	1002.6806030273438	864.1860961914062	40.08129119873047	949.7653198242188	425.860595703125	68.0870361328125	1444.6614990234375
1020	10.19	389.7023620605469	77.88153839111328	1439.790771484375	387.7974853515625	136.0605926513672	1278.47607421875	374.2106018066406	-96.962646484375	1238.437255859375	368.5123291015625	-83.47346496582031	1467.515625	572.4117431640625	-15.69629192352295	1459.7327880859375	572.748779296875	-60.34613037109375	1439.4544677734375	518.021484375	-65.45539093017578	1468.169189453125	498.70672607421875	-116.30928039550781	1411.1058349609375	477.8179626464844	-119.01531982421875	1274.08203125	647.9652099609375	-40.92223358154297	1314.4818115234375	664.2092895507812	-53.08918380737305	1268.858642578125	667.2952270507812	4.807142734527588	1110.676513671875	729.5029907226562	-60.754966735839844	1166.5003662109375	681.8038940429688	-40.393455505371094	1102.8651123046875	926.3079833984375	47.93440628051758	1002.7307739257812	863.3372192382812	40.31099319458008	949.337646484375	425.5345458984375	68.00147247314453	1444.69482421875
1021	10.200000000000001	389.4778137207031	77.76154327392578	1439.9443359375	387.74310302734375	135.9707489013672	1278.6219482421875	374.28826904296875	-97.03028869628906	1238.4228515625	368.3577575683594	-83.58868408203125	1467.4609375	572.2219848632812	-15.585017204284668	1459.8463134765625	572.59619140625	-60.268760681152344	1439.4879150390625	517.9111328125	-65.41695404052734	1468.216796875	498.7407531738281	-116.2877197265625	1411.138427734375	477.8879089355469	-119.00199127197266	1274.05419921875	647.8756713867188	-40.81254196166992	1314.521240234375	664.09130859375	-52.987937927246094	1268.902099609375	667.2003173828125	4.958318710327148	1110.6754150390625	729.0626831054688	-60.71171569824219	1166.5455322265625	681.6390380859375	-40.32963180541992	1102.91552734375	926.1126708984375	47.968074798583984	1002.7018432617188	863.7413330078125	40.0820198059082	949.62451171875	425.9019470214844	68.30229187011719	1444.8380126953125
1022	10.21	389.42364501953125	77.68973541259766	1439.9403076171875	387.4661865234375	135.9159393310547	1278.597412109375	374.373291015625	-97.09178924560547	1238.38720703125	368.2410583496094	-83.6694107055664	1467.4747314453125	572.04296875	-15.502256393432617	1459.87646484375	572.46875	-60.178245544433594	1439.495361328125	517.7883911132812	-65.37979125976562	1468.248291015625	498.7134704589844	-116.28302764892578	1411.1492919921875	477.9479064941406	-118.99626922607422	1274.023193359375	647.7081298828125	-40.68278121948242	1314.5345458984375	663.9660034179688	-52.92180252075195	1268.95703125	666.9868774414062	4.914045810699463	1110.7845458984375	729.106201171875	-60.61299133300781	1166.6195068359375	681.4811401367188	-40.300350189208984	1102.9534912109375	925.9453735351562	47.990718841552734	1002.6821899414062	863.5353393554688	40.095550537109375	949.6173706054688	425.4172058105469	68.17503356933594	1444.633056640625
1023	10.22	389.29815673828125	77.60970306396484	1440.1514892578125	387.1651306152344	135.8707275390625	1278.5518798828125	374.4222106933594	-97.1393814086914	1238.365478515625	368.1117858886719	-83.74260711669922	1467.45361328125	571.8960571289062	-15.404083251953125	1460.01025390625	572.3579711914062	-60.11856460571289	1439.5601806640625	517.611083984375	-65.36489868164062	1468.274658203125	498.62847900390625	-116.26683807373047	1411.2861328125	478.1103820800781	-118.9685287475586	1274.08203125	647.3370361328125	-40.69574737548828	1315.032958984375	663.8599853515625	-52.83247756958008	1269.0013427734375	666.9044799804688	4.957154750823975	1110.7196044921875	728.9957885742188	-60.5609130859375	1166.658203125	681.3641357421875	-40.286380767822266	1102.9967041015625	925.787109375	47.982852935791016	1002.659423828125	863.36083984375	40.08510208129883	949.57763671875	425.1556396484375	68.09251403808594	1444.682373046875
